<?xml version="1.0" encoding="UTF-8"?>
<svg version="1.1" xmlns="http://www.w3.org/2000/svg" width="1024" height="1024">
<path d="M0 0 C337.92 0 675.84 0 1024 0 C1024 337.92 1024 675.84 1024 1024 C686.08 1024 348.16 1024 0 1024 C0 686.08 0 348.16 0 0 Z " fill="#030709" transform="translate(0,0)"/>
<path d="M0 0 C0.72858544 0.00291284 1.45717088 0.00582568 2.20783466 0.00882679 C2.97639693 0.00797237 3.7449592 0.00711794 4.53681123 0.00623763 C7.13180097 0.0045805 9.72672715 0.01010797 12.321711 0.01555592 C14.17405169 0.01583777 16.02639248 0.0156801 17.8787331 0.01511341 C22.92397722 0.01482534 27.96919779 0.02072358 33.01443642 0.02768737 C38.28087681 0.03391936 43.54731767 0.03452458 48.81376117 0.03571278 C58.79395269 0.03882655 68.77413332 0.04704056 78.75432003 0.05706227 C90.11325501 0.06822197 101.47219051 0.0737335 112.83112961 0.0787577 C136.20421683 0.08922314 159.57729436 0.10682347 182.95037311 0.12908131 C184.33038329 4.52335537 183.12867319 6.5042296 181.07537311 10.62908131 C180.4174696 11.97853684 179.76130798 13.32884258 179.10662311 14.67986256 C178.75470905 15.3999651 178.40279499 16.12006764 178.04021686 16.86199147 C176.14139331 20.81191878 174.36310712 24.81546233 172.57537311 28.81658131 C171.81240179 30.51582229 171.04938033 32.21504076 170.28631061 33.91423756 C168.70517354 37.44154294 167.12791811 40.97056413 165.55193561 44.50017506 C163.36884826 49.38446196 161.1682256 54.26048606 158.95037311 59.12908131 C158.20787311 60.76296803 158.20787311 60.76296803 157.45037311 62.42986256 C151.57313317 74.82716557 139.99854869 80.22680164 128.4500069 86.73265797 C125.3293646 88.49163234 122.21570423 90.26285325 119.10271686 92.03533131 C118.48413807 92.38749714 117.86555927 92.73966297 117.22823566 93.1025005 C112.00828714 96.08151682 106.84212055 99.14250164 101.70037311 102.25408131 C94.42679051 106.65576226 87.11090381 110.9777354 79.76287311 115.25408131 C78.73685993 115.85123951 77.71084675 116.44839772 76.65374225 117.06365162 C74.65925285 118.22423329 72.6647072 119.38471829 70.67009968 120.54509693 C66.98774918 122.68971902 63.3108862 124.84351226 59.63787311 127.00408131 C58.9827071 127.38943043 58.32754108 127.77477955 57.65252155 128.17180592 C53.36816049 130.69561606 49.0916691 133.23247975 44.81756061 135.77361256 C42.54947528 137.12151177 40.28130543 138.46926636 38.01287311 139.81658131 C37.15993168 140.32319798 37.15993168 140.32319798 36.2897591 140.84004933 C24.41356965 147.88957683 12.45813881 154.7971574 0.47625202 161.66545826 C-1.27832245 162.68214818 -2.99894202 163.75882588 -4.68878704 164.87981373 C-5.46786419 165.29207203 -6.24694134 165.70433033 -7.04962689 166.12908131 C-8.03962689 165.79908131 -9.02962689 165.46908131 -10.04962689 165.12908131 C-3.59070999 156.58766583 2.90962621 148.09788151 9.70037311 139.81658131 C14.18306915 134.34813026 18.50696902 128.79718173 22.71599811 123.11345631 C26.56027995 117.97878616 30.55297225 112.96099668 34.52996296 107.928886 C35.96117969 106.11538828 37.38815082 104.29863502 38.81365436 102.48064381 C39.28690143 101.87720143 39.7601485 101.27375904 40.24773639 100.65203053 C41.13045279 99.52623381 42.01296391 98.40027608 42.89519733 97.27410084 C46.87972782 92.1976632 50.91825686 87.16922663 54.95037311 82.12908131 C29.54037311 81.79908131 4.13037311 81.46908131 -22.04962689 81.12908131 C-24.40667133 76.41499243 -24.00078904 75.42010508 -22.77618939 70.46111256 C-22.617393 69.8012032 -22.45859661 69.14129383 -22.29498821 68.46138722 C-21.76790531 66.28470307 -21.22132442 64.1134141 -20.67462689 61.94158131 C-20.30401091 60.42635814 -19.93472536 58.91080899 -19.56671673 57.39495045 C-18.79762184 54.23641221 -18.02064895 51.07996966 -17.23712689 47.92497975 C-15.88824884 42.48945377 -14.57063222 37.04653911 -13.25528485 31.60282093 C-13.07833081 30.87051762 -12.90137676 30.1382143 -12.71906048 29.38371998 C-12.5452586 28.66445332 -12.37145672 27.94518666 -12.19238812 27.20412403 C-11.68575491 25.11252259 -11.17614546 23.02167165 -10.66534954 20.93108326 C-9.35212881 15.55058936 -8.04328495 10.17454207 -6.88556439 4.75798756 C-5.68279371 -0.46338607 -5.0715054 0.01537233 0 0 Z " fill="#FEFEFE" transform="translate(177.04962688684464,371.8709186911583)"/>
<path d="M0 0 C0.99 0.33 1.98 0.66 3 1 C2.60373348 6.42992236 -0.58153699 10.07302827 -3.6875 14.3125 C-4.20505859 15.03373047 -4.72261719 15.75496094 -5.25585938 16.49804688 C-8.30623193 20.73362023 -11.42520784 24.91606556 -14.56420898 29.08618164 C-16.79585835 32.0608287 -18.99218361 35.06099166 -21.1875 38.0625 C-22.14839332 39.37503235 -23.10933212 40.68753139 -24.0703125 42 C-24.55532227 42.66257812 -25.04033203 43.32515625 -25.54003906 44.0078125 C-26.95927138 45.94442383 -28.38141957 47.87885319 -29.8046875 49.8125 C-30.49848511 50.7559729 -30.49848511 50.7559729 -31.20629883 51.71850586 C-32.05958666 52.87870082 -32.91350021 54.0384361 -33.76831055 55.19750977 C-38.58298212 61.74930647 -43.27265671 68.3817194 -48 75 C-21.27 75 5.46 75 33 75 C33.94944111 79.74720557 33.72482649 82.80047995 32.77734375 87.37890625 C32.63673523 88.09564514 32.49612671 88.81238403 32.35125732 89.55084229 C31.8895475 91.89007563 31.41392036 94.22622217 30.9375 96.5625 C30.61441272 98.17981638 30.29190793 99.79724923 29.9699707 101.41479492 C22.44277107 139.05360356 22.44277107 139.05360356 19 151 C-7.32025654 151.02332572 -33.64051154 151.04097756 -59.96077633 151.05181217 C-72.18080426 151.05697583 -84.40082579 151.06401984 -96.62084961 151.07543945 C-107.2676513 151.08538417 -117.91444835 151.09185292 -128.56125456 151.09408849 C-134.20240672 151.09539596 -139.84354561 151.09848409 -145.48469353 151.10573006 C-150.78773424 151.11248693 -156.09075613 151.11461764 -161.39380074 151.11310768 C-163.34618863 151.11338416 -165.29857712 151.11539124 -167.2509613 151.11920547 C-169.90434591 151.12413754 -172.55765824 151.1230001 -175.21104431 151.12025452 C-175.99410303 151.12316736 -176.77716174 151.1260802 -177.58394951 151.12908131 C-182.88587879 151.11412121 -182.88587879 151.11412121 -184 150 C-183.76166506 143.37075781 -180.92815383 138.60801313 -177.6875 132.9375 C-176.59353607 130.977984 -175.49979247 129.01834498 -174.40625 127.05859375 C-173.84292969 126.05812012 -173.27960938 125.05764648 -172.69921875 124.02685547 C-169.99206378 119.2045412 -167.3382354 114.35348892 -164.6875 109.5 C-164.18557129 108.58613525 -163.68364258 107.67227051 -163.16650391 106.73071289 C-159.74932386 100.47873644 -156.56664219 94.1560355 -153.59765625 87.6796875 C-150.76301217 82.9252478 -146.27688774 80.44520159 -141.51953125 77.8203125 C-140.45081787 77.22822998 -139.38210449 76.63614746 -138.28100586 76.02612305 C-137.13639893 75.39875244 -135.99179199 74.77138184 -134.8125 74.125 C-133.60865851 73.46095947 -132.40496626 72.79664833 -131.20141602 72.13208008 C-121.88635645 66.99778254 -112.52406867 61.95163324 -103.15063477 56.92480469 C-96.27143419 53.23365428 -89.42613077 49.48910553 -82.61181641 45.6796875 C-76.8688435 42.4718773 -71.09368478 39.32582845 -65.3125 36.1875 C-57.8275077 32.12217288 -50.39876187 27.9699865 -43 23.75 C-32.30920039 17.65557822 -21.46664509 11.86213526 -10.5859375 6.11621094 C-9.95553558 5.78262573 -9.32513367 5.44904053 -8.67562866 5.10534668 C-6.95214846 4.19382343 -5.22733548 3.28482146 -3.50244141 2.37597656 C-1.130019 1.2229917 -1.130019 1.2229917 0 0 Z " fill="#178DF0" transform="translate(286,501)"/>
<path d="M0 0 C65.81755515 0 65.81755515 0 79.75 13.3125 C82 16 82 16 82 18 C83.485 18.495 83.485 18.495 85 19 C96.05819703 36.22083808 96.47764881 55.27299905 92.4453125 74.66796875 C89.54356312 85.93463764 82.16050912 96.64229044 72.17578125 102.71875 C48.60133744 115.03420848 29.68125407 110 0 110 C0 73.7 0 37.4 0 0 Z " fill="#FCFCFC" transform="translate(406,537)"/>
<path d="M0 0 C60.56198347 0 60.56198347 0 73 10 C78.5068484 15.63143773 80.0609996 22.0645181 80.4375 29.8125 C80.28034103 37.20821621 78.06228312 42.84715028 72.88671875 48.17578125 C70.97574053 49.86952572 69.04278707 51.46917694 67 53 C68.08667969 53.72703125 68.08667969 53.72703125 69.1953125 54.46875 C75.89382763 59.11305382 81.3128321 63.62566419 85 71 C85.72975404 81.45582017 85.81475399 89.38278701 78.75 97.625 C77.38875 98.800625 77.38875 98.800625 76 100 C75.45859375 100.49371094 74.9171875 100.98742187 74.359375 101.49609375 C55.18380356 117.65030415 19.07721379 110 0 110 C0 73.7 0 37.4 0 0 Z " fill="#FDFDFD" transform="translate(602,537)"/>
<path d="M0 0 C0.99 0.33 1.98 0.66 3 1 C2.60373348 6.42992236 -0.58153699 10.07302827 -3.6875 14.3125 C-4.20505859 15.03373047 -4.72261719 15.75496094 -5.25585938 16.49804688 C-8.30623193 20.73362023 -11.42520784 24.91606556 -14.56420898 29.08618164 C-16.79585972 32.06083053 -18.99205917 35.0610808 -21.1875 38.0625 C-21.65526855 38.70098877 -22.12303711 39.33947754 -22.60498047 39.99731445 C-24.54743971 42.64880701 -26.48882365 45.30108379 -28.42919922 47.95410156 C-29.82727075 49.86562201 -31.22596861 51.77668197 -32.625 53.6875 C-33.30405396 54.61550415 -33.30405396 54.61550415 -33.99682617 55.56225586 C-36.17502656 58.53338556 -38.36505875 61.49419541 -40.5859375 64.43359375 C-40.99376465 64.97346924 -41.4015918 65.51334473 -41.82177734 66.06958008 C-42.9202483 67.51971652 -44.0224786 68.96700316 -45.125 70.4140625 C-46.90857865 72.87391473 -48.45480839 75.38637011 -50 78 C-55.03798467 85.67395807 -62.3446725 89.40853018 -70.24267578 93.54833984 C-73.52655386 95.27721704 -76.79285088 97.03799574 -80.05859375 98.80078125 C-84.98507212 101.45640506 -89.91493617 104.10546757 -94.8515625 106.7421875 C-95.89135254 107.2976123 -96.93114258 107.85303711 -98.00244141 108.42529297 C-110.51782946 115 -110.51782946 115 -115 115 C-115.33 115.66 -115.66 116.32 -116 117 C-116.86625 117.12375 -117.7325 117.2475 -118.625 117.375 C-123.92945403 118.3573063 -127.85457541 121.191465 -132.1875 124.25 C-135 126 -135 126 -139 126 C-139 126.66 -139 127.32 -139 128 C-140.7578125 129.40234375 -140.7578125 129.40234375 -143.125 130.9375 C-144.27355469 131.69353516 -144.27355469 131.69353516 -145.4453125 132.46484375 C-148.23131571 134.13900164 -151.08925268 135.55346822 -154 137 C-156.78753756 138.51217315 -159.55048075 140.06680898 -162.3125 141.625 C-163.40401367 142.23601562 -163.40401367 142.23601562 -164.51757812 142.859375 C-167.96391796 144.64360669 -167.96391796 144.64360669 -171 147 C-167.31229775 149.36679867 -163.73371509 149.29005127 -159.4956665 149.2784729 C-158.73679162 149.2842653 -157.97791673 149.2900577 -157.19604564 149.29602563 C-154.65181296 149.31303828 -152.10776154 149.31590321 -149.56347656 149.31884766 C-147.7402451 149.32814496 -145.91701791 149.33831334 -144.09379578 149.34928894 C-139.14172029 149.37662527 -134.18967331 149.39174913 -129.23754215 149.40471697 C-124.06317431 149.4203316 -118.88886481 149.44712713 -113.71453857 149.4727478 C-103.91509555 149.51956514 -94.11564158 149.55629495 -84.31614375 149.58942068 C-73.16024172 149.62762118 -62.00439825 149.67703677 -50.84854555 149.72740483 C-27.89907375 149.83076864 -4.94956434 149.92001458 18 150 C18 150.33 18 150.66 18 151 C-8.18987272 151.02332574 -34.3797439 151.04097758 -60.5696249 151.05181217 C-72.72911869 151.05697582 -84.88860604 151.06401983 -97.0480957 151.07543945 C-107.64215968 151.08538419 -118.236219 151.09185292 -128.83028752 151.09408849 C-134.44349403 151.09539596 -140.0566872 151.09848406 -145.66988945 151.10573006 C-150.94666536 151.11248696 -156.22342235 151.11461764 -161.50020218 151.11310768 C-163.44291473 151.11338416 -165.38562788 151.11539123 -167.32833672 151.11920547 C-169.96858426 151.12413758 -172.60875916 151.12300009 -175.24900818 151.12025452 C-176.02817594 151.12316736 -176.80734371 151.1260802 -177.61012262 151.12908131 C-182.88587879 151.11412121 -182.88587879 151.11412121 -184 150 C-183.76166506 143.37075781 -180.92815383 138.60801313 -177.6875 132.9375 C-176.59353607 130.977984 -175.49979247 129.01834498 -174.40625 127.05859375 C-173.84292969 126.05812012 -173.27960938 125.05764648 -172.69921875 124.02685547 C-169.99206378 119.2045412 -167.3382354 114.35348892 -164.6875 109.5 C-164.18557129 108.58613525 -163.68364258 107.67227051 -163.16650391 106.73071289 C-159.74932386 100.47873644 -156.56664219 94.1560355 -153.59765625 87.6796875 C-150.76301217 82.9252478 -146.27688774 80.44520159 -141.51953125 77.8203125 C-140.45081787 77.22822998 -139.38210449 76.63614746 -138.28100586 76.02612305 C-137.13639893 75.39875244 -135.99179199 74.77138184 -134.8125 74.125 C-133.60865851 73.46095947 -132.40496626 72.79664833 -131.20141602 72.13208008 C-121.88635645 66.99778254 -112.52406867 61.95163324 -103.15063477 56.92480469 C-96.27143419 53.23365428 -89.42613077 49.48910553 -82.61181641 45.6796875 C-76.8688435 42.4718773 -71.09368478 39.32582845 -65.3125 36.1875 C-57.8275077 32.12217288 -50.39876187 27.9699865 -43 23.75 C-32.30920039 17.65557822 -21.46664509 11.86213526 -10.5859375 6.11621094 C-9.95553558 5.78262573 -9.32513367 5.44904053 -8.67562866 5.10534668 C-6.95214846 4.19382343 -5.22733548 3.28482146 -3.50244141 2.37597656 C-1.130019 1.2229917 -1.130019 1.2229917 0 0 Z " fill="#34AAF9" transform="translate(286,501)"/>
<path d="M0 0 C6.89305104 5.62648336 11.43188525 13.01029052 13.25 21.75 C13.25 23.4 13.25 25.05 13.25 26.75 C5.66 27.74 -1.93 28.73 -9.75 29.75 C-14.75 21.75 -14.75 21.75 -14.75 19.75 C-15.41 19.75 -16.07 19.75 -16.75 19.75 C-16.75 19.09 -16.75 18.43 -16.75 17.75 C-26.76201201 13.64112769 -35.87465295 10.99590465 -46.453125 14.6953125 C-54.61287739 18.38430235 -58.91306254 23.0362759 -62.0625 31.375 C-66.70225132 45.03975282 -65.78273207 58.99157063 -59.9375 72.125 C-56.55971876 78.38157207 -51.28767984 81.37266188 -44.75 83.75 C-36.25645497 85.75175202 -27.68127189 85.59170982 -19.75 81.75 C-14.57376167 78.3317294 -11.86456363 74.47558766 -9.75 68.75 C-9.42 67.1 -9.09 65.45 -8.75 63.75 C-17.33 63.75 -25.91 63.75 -34.75 63.75 C-34.75 57.15 -34.75 50.55 -34.75 43.75 C-17.92 43.75 -1.09 43.75 16.25 43.75 C16.353125 48.266875 16.45625 52.78375 16.5625 57.4375 C16.63078003 59.53097778 16.63078003 59.53097778 16.70043945 61.66674805 C16.84183528 74.63228898 13.1574236 85.24626352 4.25 94.75 C3.65445313 95.38679688 3.05890625 96.02359375 2.4453125 96.6796875 C-8.50529014 107.26678466 -24.64167821 109.80308497 -39.3125 109.84716797 C-53.68971373 109.27403785 -68.25183267 104.05927841 -78.71875 94.06640625 C-90.61639064 80.49851991 -94.52853601 61.38608092 -93.625 43.75 C-92.53408668 28.38536687 -87.81966304 13.84027694 -76.75 2.75 C-73.99609375 1.4609375 -73.99609375 1.4609375 -71.75 0.75 C-71.75 0.09 -71.75 -0.57 -71.75 -1.25 C-48.91475598 -14.09262568 -21.99119057 -15.7810537 0 0 Z " fill="#FCFCFC" transform="translate(714.75,381.25)"/>
<path d="M0 0 C11.55 0 23.1 0 35 0 C42.66693147 21.82771199 50.28800976 43.66391403 57.55273438 65.62915039 C61.93319933 78.86448153 66.44646363 92.05306088 70.98876953 105.23364258 C71.39202957 106.40638229 71.39202957 106.40638229 71.80343628 107.60281372 C72.30902808 109.07298347 72.81590707 110.54271136 73.32424927 112.01193237 C75 116.88747239 75 116.88747239 75 118 C65.43 118 55.86 118 46 118 C44.68 114.2875 43.36 110.575 42 106.75 C41.58234375 105.5856543 41.1646875 104.42130859 40.734375 103.22167969 C40.24710938 101.83577637 40.24710938 101.83577637 39.75 100.421875 C39.24726562 99.00793457 39.24726562 99.00793457 38.734375 97.56542969 C38 95 38 95 38 91 C24.47 91 10.94 91 -3 91 C-3.99 94.3 -4.98 97.6 -6 101 C-6.86916913 103.8562003 -7.74242983 106.71049084 -8.625 109.5625 C-8.8415625 110.27212891 -9.058125 110.98175781 -9.28125 111.71289062 C-10.88478459 116.88478459 -10.88478459 116.88478459 -12 118 C-14.07262076 118.08767112 -16.14820294 118.10695873 -18.22265625 118.09765625 C-20.11274414 118.09282227 -20.11274414 118.09282227 -22.04101562 118.08789062 C-23.38151109 118.07953403 -24.72200588 118.07106907 -26.0625 118.0625 C-27.40689942 118.0574866 -28.7513006 118.05292342 -30.09570312 118.04882812 C-33.39717941 118.03699488 -36.69856803 118.02050971 -40 118 C-38.06941589 111.41969388 -36.00244478 104.90426313 -33.77734375 98.41796875 C-33.47585419 97.53437683 -33.17436462 96.65078491 -32.86373901 95.74041748 C-31.89016968 92.88881117 -30.91390783 90.0381355 -29.9375 87.1875 C-29.25663868 85.19543348 -28.57589426 83.203327 -27.89526367 81.21118164 C-23.45145909 68.21110158 -18.98347995 55.21947241 -14.49609375 42.234375 C-9.63675578 28.16566285 -4.82445894 14.08068831 0 0 Z " fill="#FDFDFD" transform="translate(548,372)"/>
<path d="M0 0 C30.36 0 60.72 0 92 0 C92 22.94328674 92 22.94328674 85.5 29.5625 C84.19435224 31.05645299 82.88965744 32.55123938 81.5859375 34.046875 C80.9578418 34.73330078 80.32974609 35.41972656 79.68261719 36.12695312 C77.63912574 38.40171609 75.86922937 40.80270389 74.125 43.3125 C70.21283845 48.77093707 66.13832337 54.10095438 62.0625 59.4375 C53.58398368 70.54041152 45.2184204 81.69967195 37 93 C55.15 93.33 73.3 93.66 92 94 C92 101.92 92 109.84 92 118 C61.64 118 31.28 118 0 118 C0 96.3549449 0 96.3549449 7.0234375 89.2265625 C10.28673221 85.76510071 13.06390428 82.01901149 15.875 78.1875 C16.89460157 76.82329726 17.91544295 75.46002032 18.9375 74.09765625 C20.93999768 71.41982385 22.93947627 68.7397653 24.9375 66.05859375 C30.81584799 58.18131377 36.77588019 50.3755642 42.84130859 42.64111328 C47.6550624 36.49092262 52.30987839 30.25349548 57 24 C38.19 23.67 19.38 23.34 0 23 C0 15.41 0 7.82 0 0 Z " fill="#FDFDFD" transform="translate(407,372)"/>
<path d="M0 0 C9.57 0 19.14 0 29 0 C46.17083508 48.20056461 46.17083508 48.20056461 51.79833984 65.38549805 C55.41626397 76.38699495 59.3050861 87.29219705 63.19262695 98.20068359 C63.57224579 99.26811798 63.57224579 99.26811798 63.95953369 100.3571167 C64.43825289 101.70256877 64.91838004 103.04752092 65.40008545 104.39190674 C67 108.88826821 67 108.88826821 67 110 C58.42 110 49.84 110 41 110 C38.36 102.08 35.72 94.16 33 86 C20.46 85.67 7.92 85.34 -5 85 C-5.99 88.96 -6.98 92.92 -8 97 C-9.2673198 101.35720652 -10.63559052 105.67152853 -12 110 C-20.58 110 -29.16 110 -38 110 C-36.21812649 104.06042164 -34.45314958 98.26592966 -32.390625 92.44140625 C-32.14706268 91.75110321 -31.90350037 91.06080017 -31.65255737 90.34957886 C-31.12762855 88.86249013 -30.60167265 87.37576361 -30.07476807 85.88937378 C-28.63094023 81.81597998 -27.19503895 77.7397891 -25.7578125 73.6640625 C-25.45499359 72.8060051 -25.15217468 71.94794769 -24.84017944 71.06388855 C-21.2424283 60.86417991 -17.68366538 50.6508967 -14.125 40.4375 C-12.91935504 36.97783523 -11.71362088 33.51820156 -10.5078125 30.05859375 C-10.07855469 28.82687187 -10.07855469 28.82687187 -9.640625 27.57026672 C-6.43587349 18.37709875 -3.2178575 9.18858799 0 0 Z " fill="#FDFDFD" transform="translate(727,537)"/>
<path d="M0 0 C24.42 0 48.84 0 74 0 C74 6.6 74 13.2 74 20 C57.5 20 41 20 24 20 C24 28.25 24 36.5 24 45 C39.18 45 54.36 45 70 45 C70 59 70 59 69 64 C54.15 64 39.3 64 24 64 C24 72.58 24 81.16 24 90 C39.84 90 55.68 90 72 90 C72 96.6 72 103.2 72 110 C48.24 110 24.48 110 0 110 C0 73.7 0 37.4 0 0 Z " fill="#FCFCFC" transform="translate(515,537)"/>
<path d="M0 0 C24.09 0 48.18 0 73 0 C73 6.6 73 13.2 73 20 C56.5 20 40 20 23 20 C23 28.25 23 36.5 23 45 C38.18 45 53.36 45 69 45 C69 51.27 69 57.54 69 64 C53.82 64 38.64 64 23 64 C23 72.58 23 81.16 23 90 C39.17 90 55.34 90 72 90 C72 96.6 72 103.2 72 110 C48.24 110 24.48 110 0 110 C0 73.7 0 37.4 0 0 Z " fill="#FCFCFC" transform="translate(882,537)"/>
<path d="M0 0 C29.04 0 58.08 0 88 0 C88 6.6 88 13.2 88 20 C77.44 20 66.88 20 56 20 C56 49.7 56 79.4 56 110 C48.08 110 40.16 110 32 110 C32 80.3 32 50.6 32 20 C21.44 20 10.88 20 0 20 C0 13.4 0 6.8 0 0 Z " fill="#FBFBFB" transform="translate(782,537)"/>
<path d="M0 0 C27.05714286 0 27.05714286 0 36.25 6.1875 C43.9989309 14.11254296 46.05008183 23.09117866 46.25 33.875 C46.06680916 45.18398099 44.49530437 54.72630281 36.80859375 63.390625 C26.81226071 72.28585008 12.17760532 70 0 70 C0 46.9 0 23.8 0 0 Z " fill="#040709" transform="translate(430,557)"/>
<path d="M0 0 C6.2184375 -0.0928125 6.2184375 -0.0928125 12.5625 -0.1875 C13.85615479 -0.21481201 15.14980957 -0.24212402 16.48266602 -0.27026367 C22.75762807 -0.31554741 27.52869199 -0.20364488 33 3 C37.17753855 7.397409 38.31526252 10.86049191 38.21484375 16.94140625 C37.73807026 21.50976317 35.77437114 24.30117726 32.4375 27.3125 C28.53581258 30.01366821 26.42818578 30.11904588 21.6796875 30.09765625 C20.54772949 30.09515869 19.41577148 30.09266113 18.24951172 30.09008789 C16.80592285 30.08098389 15.36233398 30.07187988 13.875 30.0625 C9.29625 30.041875 4.7175 30.02125 0 30 C0 20.1 0 10.2 0 0 Z " fill="#040708" transform="translate(625,599)"/>
<path d="M0 0 C6.249375 -0.1546875 6.249375 -0.1546875 12.625 -0.3125 C13.92775879 -0.35802002 15.23051758 -0.40354004 16.57275391 -0.45043945 C26.13558262 -0.56518155 26.13558262 -0.56518155 29.75 2.40625 C33.39705355 6.61049229 34.47708546 9.16464617 34.31640625 14.90625 C33.62770275 19.46359662 31.45882944 22.92080792 27.7277832 25.6809082 C24.57527703 27.20538604 22.52881891 27.34659721 19.04296875 27.29296875 C18.04031982 27.28547607 17.0376709 27.2779834 16.00463867 27.27026367 C14.74498291 27.24295166 13.48532715 27.21563965 12.1875 27.1875 C8.165625 27.125625 4.14375 27.06375 0 27 C0 18.09 0 9.18 0 0 Z " fill="#040608" transform="translate(625,555)"/>
<path d="M0 0 C2.11751586 3.17627379 2.96996765 5.78456348 4.05859375 9.43359375 C4.24841324 10.06677017 4.43823273 10.69994659 4.63380432 11.35231018 C5.03536948 12.69566543 5.43447544 14.0397579 5.83129883 15.38452148 C6.42663718 17.40071165 7.02998557 19.41435895 7.63476562 21.42773438 C9.96668618 29.25099604 12.01653659 37.06614634 14 45 C4.76 45 -4.48 45 -14 45 C-12.26064019 38.62234735 -10.53352222 32.29413782 -8.5546875 25.99609375 C-8.33934357 25.30612808 -8.12399963 24.61616241 -7.90213013 23.9052887 C-7.45444067 22.47260716 -7.00578157 21.04022825 -6.55615234 19.6081543 C-5.86664233 17.4108663 -5.18118461 15.21234124 -4.49609375 13.01367188 C-4.05752881 11.61190495 -3.61873537 10.21020949 -3.1796875 8.80859375 C-2.97552216 8.15346298 -2.77135681 7.49833221 -2.56100464 6.823349 C-1.81997288 4.46927711 -1.10569776 2.21139552 0 0 Z " fill="#05080A" transform="translate(565,397)"/>
<path d="M0 0 C0.66 0 1.32 0 2 0 C2.21615967 0.70906494 2.43231934 1.41812988 2.6550293 2.14868164 C8.20147306 20.36388144 8.20147306 20.36388144 14.1875 38.4375 C15 41 15 41 15 43 C5.76 43 -3.48 43 -13 43 C-12.31292969 40.73382812 -11.62585938 38.46765625 -10.91796875 36.1328125 C-10.24272284 33.90528384 -9.56752614 31.67774027 -8.89233398 29.45019531 C-8.42786706 27.9179532 -7.96335004 26.38572627 -7.4987793 24.85351562 C-4.98794823 16.57236773 -2.47811214 8.29101506 0 0 Z " fill="#06080A" transform="translate(740,561)"/>
<path d="M0 0 C1 2 1 2 0.25 4.75 C-0.9850319 7.96108295 -2.43721609 10.93694354 -4 14 C-6.17490909 18.32754548 -6.17490909 18.32754548 -7 23 C-7.99 23.66 -8.98 24.32 -10 25 C-13.01102041 28.1364796 -14.01996093 31.70992757 -15.25390625 35.78125 C-15.99313428 37.97958256 -16.91595858 39.95288316 -18 42 C-13.04114494 41.63715695 -10.47854006 40.07386867 -6.6796875 37.14453125 C-4.53210582 35.68117908 -2.57037232 35.23367021 0 35 C-1.74959131 36.93375882 -3.2908392 38.17024734 -5.5625 39.5 C-8.24718511 40.91804659 -8.24718511 40.91804659 -10 44 C-6.31229775 46.36679867 -2.73371509 46.29005127 1.5043335 46.2784729 C2.26320838 46.2842653 3.02208327 46.2900577 3.80395436 46.29602563 C6.34818704 46.31303828 8.89223846 46.31590321 11.43652344 46.31884766 C13.2597549 46.32814496 15.08298209 46.33831334 16.90620422 46.34928894 C21.85827971 46.37662527 26.81032669 46.39174913 31.76245785 46.40471697 C36.93682569 46.4203316 42.11113519 46.44712713 47.28546143 46.4727478 C57.08490445 46.51956514 66.88435842 46.55629495 76.68385625 46.58942068 C87.83975828 46.62762118 98.99560175 46.67703677 110.15145445 46.72740483 C133.10092625 46.83076864 156.05043566 46.92001458 179 47 C179 47.33 179 47.66 179 48 C152.81012728 48.02332574 126.6202561 48.04097758 100.4303751 48.05181217 C88.27088131 48.05697582 76.11139396 48.06401983 63.9519043 48.07543945 C53.35784032 48.08538419 42.763781 48.09185292 32.16971248 48.09408849 C26.55650597 48.09539596 20.9433128 48.09848406 15.33011055 48.10573006 C10.05333464 48.11248696 4.77657765 48.11461764 -0.50020218 48.11310768 C-2.44291473 48.11338416 -4.38562788 48.11539123 -6.32833672 48.11920547 C-8.96858426 48.12413758 -11.60875916 48.12300009 -14.24900818 48.12025452 C-15.02817594 48.12316736 -15.80734371 48.1260802 -16.61012262 48.12908131 C-21.88587879 48.11412121 -21.88587879 48.11412121 -23 47 C-22.77553098 40.29286575 -19.83398581 35.42315659 -16.5625 29.6875 C-16.02915039 28.73214355 -15.49580078 27.77678711 -14.94628906 26.79248047 C-13.84713866 24.82542525 -12.74343679 22.86090655 -11.63525391 20.89892578 C-9.59775637 17.28691538 -7.5893892 13.65919966 -5.58178711 10.03051758 C-3.7284454 6.68295097 -1.86454777 3.34133561 0 0 Z " fill="#2AD8FA" transform="translate(125,604)"/>
<path d="M0 0 C0.33 0 0.66 0 1 0 C1 3.3 1 6.6 1 10 C-9.23 10 -19.46 10 -30 10 C-29.99476318 12.72113037 -29.98952637 15.44226074 -29.98413086 18.24584961 C-29.96759599 27.21450125 -29.95652919 36.18315355 -29.94818783 45.15181637 C-29.94295872 50.59202312 -29.93586057 56.03221431 -29.92456055 61.47241211 C-29.91373265 66.71785702 -29.90772338 71.96328692 -29.90512276 77.20874214 C-29.90326833 79.21470946 -29.89964738 81.22067592 -29.89426994 83.22663689 C-29.88706081 86.02602824 -29.886009 88.82535679 -29.88647461 91.62475586 C-29.88287933 92.46272705 -29.87928406 93.30069824 -29.87557983 94.1640625 C-29.88594784 99.88594784 -29.88594784 99.88594784 -31 101 C-32.84159023 101.09959621 -34.68696967 101.13080411 -36.53125 101.1328125 C-37.65144531 101.13410156 -38.77164063 101.13539063 -39.92578125 101.13671875 C-41.10527344 101.13285156 -42.28476562 101.12898437 -43.5 101.125 C-45.26923828 101.13080078 -45.26923828 101.13080078 -47.07421875 101.13671875 C-48.19441406 101.13542969 -49.31460938 101.13414062 -50.46875 101.1328125 C-51.50451172 101.13168457 -52.54027344 101.13055664 -53.60742188 101.12939453 C-56 101 -56 101 -57 100 C-57.14115161 97.32941149 -57.04247107 94.67567762 -57 92 C-56.67 92 -56.34 92 -56 92 C-56 94.31 -56 96.62 -56 99 C-48.08 99 -40.16 99 -32 99 C-32 69.3 -32 39.6 -32 9 C-21.44 9 -10.88 9 0 9 C0 6.03 0 3.06 0 0 Z " fill="#272727" transform="translate(870,548)"/>
<path d="M0 0 C1 2 1 2 0.25 4.75 C-0.9850319 7.96108295 -2.43721609 10.93694354 -4 14 C-6.17490909 18.32754548 -6.17490909 18.32754548 -7 23 C-7.99 23.66 -8.98 24.32 -10 25 C-13.01102041 28.1364796 -14.01996093 31.70992757 -15.25390625 35.78125 C-15.99313428 37.97958256 -16.91595858 39.95288316 -18 42 C-16.02 42 -14.04 42 -12 42 C-14.36944013 44.61885488 -16.83733102 46.41866551 -20 48 C-20.99 47.67 -21.98 47.34 -23 47 C-22.6223123 40.26610474 -19.86405472 35.47587421 -16.5625 29.6875 C-16.02915039 28.73214355 -15.49580078 27.77678711 -14.94628906 26.79248047 C-13.84713866 24.82542525 -12.74343679 22.86090655 -11.63525391 20.89892578 C-9.59775637 17.28691538 -7.5893892 13.65919966 -5.58178711 10.03051758 C-3.7284454 6.68295097 -1.86454777 3.34133561 0 0 Z " fill="#3DE1F7" transform="translate(125,604)"/>
<path d="M0 0 C12.54 0 25.08 0 38 0 C38.495 1.485 38.495 1.485 39 3 C26.46 3 13.92 3 1 3 C1 4.32 1 5.64 1 7 C0.34 7 -0.32 7 -1 7 C-1.33 8.32 -1.66 9.64 -2 11 C-2.33 10.34 -2.66 9.68 -3 9 C-2.01 6.03 -1.02 3.06 0 0 Z " fill="#202122" transform="translate(722,622)"/>
<path d="M0 0 C19.14 0 38.28 0 58 0 C57.01 1.65 56.02 3.3 55 5 C54.505 4.01 54.505 4.01 54 3 C36.18 3 18.36 3 0 3 C0 2.01 0 1.02 0 0 Z " fill="#202224" transform="translate(407,395)"/>
<path d="M0 0 C7.92 0 15.84 0 24 0 C24 0.66 24 1.32 24 2 C13.605 2.495 13.605 2.495 3 3 C2.67 24.45 2.34 45.9 2 68 C1.67 68 1.34 68 1 68 C0.67 45.56 0.34 23.12 0 0 Z " fill="#0D0E10" transform="translate(430,557)"/>
<path d="M0 0 C4.95 0.33 9.9 0.66 15 1 C15 1.33 15 1.66 15 2 C11.04 2 7.08 2 3 2 C3 8.93 3 15.86 3 23 C3.99 23.33 4.98 23.66 6 24 C4.02 24.33 2.04 24.66 0 25 C0 16.75 0 8.5 0 0 Z " fill="#202223" transform="translate(905,557)"/>
<path d="M0 0 C0.99 0.33 1.98 0.66 3 1 C2.65986985 6.44208234 -0.70296528 9.93668198 -4 14 C-4 12 -4 10 -4 8 C-4.66 7.67 -5.32 7.34 -6 7 C-9.0745356 7.7763932 -9.0745356 7.7763932 -11 10 C-13.125 9.625 -13.125 9.625 -15 9 C-11.66666667 7 -8.33333333 5 -5 3 C-4.12730469 2.41863281 -3.25460937 1.83726562 -2.35546875 1.23828125 C-1.57816406 0.82964844 -0.80085938 0.42101562 0 0 Z " fill="#3FC6F6" transform="translate(286,501)"/>
<path d="M0 0 C1.57499749 3.14999498 0.70833498 5.63540882 0 9 C-1.5625 10.9375 -1.5625 10.9375 -3 12 C-2.34 12 -1.68 12 -1 12 C0.66666667 12 2.33333333 12 4 12 C1.63055987 14.61885488 -0.83733102 16.41866551 -4 18 C-4.99 17.67 -5.98 17.34 -7 17 C-6.70368676 10.18479548 -3.69535803 5.61649218 0 0 Z " fill="#78F6FA" transform="translate(109,634)"/>
<path d="M0 0 C0.66 1.32 1.32 2.64 2 4 C-7.24 4 -16.48 4 -26 4 C-25.67 3.01 -25.34 2.02 -25 1 C-16.75 1.33 -8.5 1.66 0 2 C0 1.34 0 0.68 0 0 Z " fill="#020203" transform="translate(577,438)"/>
<path d="M0 0 C0.66 0.33 1.32 0.66 2 1 C1.57444637 6.42580873 0.47045561 8.89855246 -3 13 C-4.25556887 16.17921787 -4.25556887 16.17921787 -5 19 C-5.66 19 -6.32 19 -7 19 C-7.33 19.99 -7.66 20.98 -8 22 C-9 20 -9 20 -8.2890625 17.3359375 C-6.85907799 13.63531092 -5.18558239 10.1504836 -3.375 6.625 C-2.88773438 5.66400391 -2.88773438 5.66400391 -2.390625 4.68359375 C-1.59742593 3.12052499 -0.79922969 1.55999378 0 0 Z " fill="#33CEF6" transform="translate(132,590)"/>
<path d="M0 0 C0.66 0.33 1.32 0.66 2 1 C1.44570312 1.32613281 0.89140625 1.65226563 0.3203125 1.98828125 C-0.40414062 2.42527344 -1.12859375 2.86226562 -1.875 3.3125 C-2.59429687 3.74175781 -3.31359375 4.17101562 -4.0546875 4.61328125 C-6.26846333 6.01752375 -6.26846333 6.01752375 -8 9 C-6.68 9.99 -5.36 10.98 -4 12 C-7.96 12 -11.92 12 -16 12 C-15.01 11.01 -14.02 10.02 -13 9 C-12.278125 8.195625 -11.55625 7.39125 -10.8125 6.5625 C-7.56257905 3.60146091 -4.18196596 1.42168379 0 0 Z " fill="#39D4FB" transform="translate(123,639)"/>
<path d="M0 0 C0.66 0 1.32 0 2 0 C3.13356198 6.12123468 3.41506173 12.12079996 1 18 C-1.08203125 19.2890625 -1.08203125 19.2890625 -3 20 C-3.25067385 14.4851752 -3.25067385 14.4851752 -2.03125 12.125 C-0.80792319 9.60420536 -0.59482208 7.534413 -0.375 4.75 C-0.30023438 3.85796875 -0.22546875 2.9659375 -0.1484375 2.046875 C-0.09945313 1.37140625 -0.05046875 0.6959375 0 0 Z " fill="#0C70DE" transform="translate(315,584)"/>
<path d="M0 0 C2 3 2 3 1.79296875 5.48828125 C1.59316406 6.42027344 1.39335937 7.35226562 1.1875 8.3125 C0.98769531 9.28445313 0.78789062 10.25640625 0.58203125 11.2578125 C0.38996094 12.16273438 0.19789063 13.06765625 0 14 C-0.33882656 15.99907671 -0.67544172 17.99855726 -1 20 C-1.99 20 -2.98 20 -4 20 C-3.21085905 13.21338787 -1.58725189 6.63850633 0 0 Z " fill="#0E73DC" transform="translate(312,606)"/>
<path d="M0 0 C13.2 0 26.4 0 40 0 C39.67 0.66 39.34 1.32 39 2 C26.79 2 14.58 2 2 2 C1.67 2.66 1.34 3.32 1 4 C0.34 4 -0.32 4 -1 4 C-0.67 2.68 -0.34 1.36 0 0 Z " fill="#000000" transform="translate(545,463)"/>
<path d="M0 0 C0 0.99 0 1.98 0 3 C-2.66666667 4.33333333 -5.33333333 5.66666667 -8 7 C-8.66 6.67 -9.32 6.34 -10 6 C-10.33 6.99 -10.66 7.98 -11 9 C-12.65 9 -14.3 9 -16 9 C-11.97806144 5.49702126 -5.60566856 0 0 0 Z " fill="#44C0F2" transform="translate(268,512)"/>
<path d="M0 0 C0.33 0.99 0.66 1.98 1 3 C-0.65 4.32 -2.3 5.64 -4 7 C-4 4 -4 4 -2 1.8125 C-1.34 1.214375 -0.68 0.61625 0 0 Z M-6 7 C-5.67 7.66 -5.34 8.32 -5 9 C-5.73178866 11.07196631 -6.55899003 13.1108552 -7.4375 15.125 C-7.91058594 16.22070312 -8.38367188 17.31640625 -8.87109375 18.4453125 C-9.24363281 19.28835938 -9.61617187 20.13140625 -10 21 C-11 19 -11 19 -10.2578125 16.43359375 C-9.88398437 15.44488281 -9.51015625 14.45617187 -9.125 13.4375 C-8.75632812 12.44621094 -8.38765625 11.45492188 -8.0078125 10.43359375 C-7 8 -7 8 -6 7 Z " fill="#191A1B" transform="translate(661,399)"/>
<path d="M0 0 C1.35814777 4.0744433 -0.05254238 6.81468116 -1.4375 10.6875 C-1.68048828 11.38939453 -1.92347656 12.09128906 -2.17382812 12.81445312 C-2.7744944 14.54578532 -3.38619719 16.27328137 -4 18 C-4.66 17.34 -5.32 16.68 -6 16 C-3.10933941 4.29384966 -3.10933941 4.29384966 0 0 Z " fill="#111212" transform="translate(540,392)"/>
<path d="M0 0 C0.66 0.33 1.32 0.66 2 1 C1.40210642 5.18525505 0.63735965 9.08852973 -1 13 C-1.99 13.33 -2.98 13.66 -4 14 C-4 13.01 -4 12.02 -4 11 C-3.34 11 -2.68 11 -2 11 C-1.93941406 10.37351562 -1.87882813 9.74703125 -1.81640625 9.1015625 C-1.73261719 8.28429687 -1.64882813 7.46703125 -1.5625 6.625 C-1.48128906 5.81289063 -1.40007813 5.00078125 -1.31640625 4.1640625 C-1 2 -1 2 0 0 Z " fill="#0B0D0E" transform="translate(532,411)"/>
<path d="M0 0 C0.99 0 1.98 0 3 0 C3.08114106 1.77007714 3.13925505 3.54122098 3.1875 5.3125 C3.22230469 6.29863281 3.25710938 7.28476562 3.29296875 8.30078125 C3 11 3 11 1.48828125 12.85546875 C0.99714844 13.23316406 0.50601563 13.61085938 0 14 C-1.41778293 11.16443413 -0.86257622 9.0091294 -0.5625 5.875 C-0.46066406 4.77929688 -0.35882812 3.68359375 -0.25390625 2.5546875 C-0.17011719 1.71164062 -0.08632813 0.86859375 0 0 Z " fill="#2C2E2F" transform="translate(687,612)"/>
<path d="M0 0 C0.66 0.33 1.32 0.66 2 1 C1.40049704 4.68266103 0.75241109 8.34543185 0 12 C-0.99 12 -1.98 12 -3 12 C-2.68950274 10.56206608 -2.3765224 9.1246682 -2.0625 7.6875 C-1.88847656 6.88699219 -1.71445312 6.08648438 -1.53515625 5.26171875 C-1 3 -1 3 0 0 Z " fill="#0F1011" transform="translate(735,578)"/>
<path d="M0 0 C0.66 0 1.32 0 2 0 C2.53394179 1.4117783 3.05165104 2.82970244 3.5625 4.25 C3.85253906 5.03890625 4.14257812 5.8278125 4.44140625 6.640625 C5.04522837 9.19103452 4.8473932 10.55322229 4 13 C0.25474201 9.25474201 0.31090051 5.01729091 0 0 Z " fill="#0D0E0F" transform="translate(567,407)"/>
<path d="M0 0 C0.66 1.32 1.32 2.64 2 4 C1.566875 4.350625 1.13375 4.70125 0.6875 5.0625 C-1.68358456 7.78485635 -2.6716835 10.64758216 -4 14 C-5 12 -5 12 -4.51171875 9.94140625 C-4.10373047 8.76384766 -4.10373047 8.76384766 -3.6875 7.5625 C-3.42324219 6.78003906 -3.15898438 5.99757813 -2.88671875 5.19140625 C-2 3 -2 3 0 0 Z " fill="#57E7F3" transform="translate(113,626)"/>
<path d="M0 0 C0.99 0 1.98 0 3 0 C3.25 7.625 3.25 7.625 1 11 C-0.28317892 7.15046324 -0.06643637 4.05261865 0 0 Z " fill="#0D0D0E" transform="translate(656,564)"/>
<path d="M0 0 C1.5 1.25 1.5 1.25 3 3 C3 4.32 3 5.64 3 7 C3.66 7 4.32 7 5 7 C5 9.64 5 12.28 5 15 C3.25050228 12.37575342 2.34610019 10.44272784 1.375 7.5 C0.98441406 6.33984375 0.98441406 6.33984375 0.5859375 5.15625 C0 3 0 3 0 0 Z " fill="#131414" transform="translate(589,389)"/>
<path d="M0 0 C1.42944945 2.35438733 2.08661261 3.48032433 1.625 6.25 C1.41875 6.8275 1.2125 7.405 1 8 C-0.32 8.33 -1.64 8.66 -3 9 C-2.5020163 5.26512223 -2.12508244 3.18762365 0 0 Z " fill="#48E7FA" transform="translate(117,619)"/>
<path d="M0 0 C-0.33 1.98 -0.66 3.96 -1 6 C-3.97 5.505 -3.97 5.505 -7 5 C-6 2 -6 2 -4.0625 0.8125 C-2 0 -2 0 0 0 Z " fill="#45B7F5" transform="translate(252,521)"/>
<path d="M0 0 C0.66 0.33 1.32 0.66 2 1 C1.01 1.33 0.02 1.66 -1 2 C-1 2.66 -1 3.32 -1 4 C-1.99 4.33 -2.98 4.66 -4 5 C-4.66 5.66 -5.32 6.32 -6 7 C-8.125 6.625 -8.125 6.625 -10 6 C-8.3811004 4.96951963 -6.75467511 3.95085322 -5.125 2.9375 C-4.22007812 2.36902344 -3.31515625 1.80054688 -2.3828125 1.21484375 C-1.20332031 0.61349609 -1.20332031 0.61349609 0 0 Z " fill="#4CD1F2" transform="translate(281,504)"/>
<path d="M0 0 C0.66 0.33 1.32 0.66 2 1 C1.01 1.33 0.02 1.66 -1 2 C-2.20882096 4.00016466 -2.20882096 4.00016466 -3 6 C-4.65 6 -6.3 6 -8 6 C-5.63404067 3.38499232 -3.13950774 1.61000397 0 0 Z M-10 6 C-8 7 -8 7 -8 7 Z " fill="#101112" transform="translate(284,470)"/>
<path d="M0 0 C2 3 2 3 1.875 5.5625 C1 8 1 8 -3 10 C-2.01 6.7 -1.02 3.4 0 0 Z " fill="#0F1011" transform="translate(565,397)"/>
<path d="M0 0 C1.15957207 3.47871621 0.77456651 4.34219645 -0.4375 7.6875 C-0.86869141 8.89986328 -0.86869141 8.89986328 -1.30859375 10.13671875 C-1.53675781 10.75160156 -1.76492188 11.36648438 -2 12 C-2.66 11.34 -3.32 10.68 -4 10 C-3.52449439 8.51965236 -3.04448784 7.04074979 -2.5625 5.5625 C-2.29566406 4.73878906 -2.02882813 3.91507813 -1.75390625 3.06640625 C-1 1 -1 1 0 0 Z " fill="#0D0E0E" transform="translate(695,625)"/>
<path d="M0 0 C0.3125 2.1875 0.3125 2.1875 0 5 C-2.5 7.8125 -2.5 7.8125 -5 10 C-4.71872579 8.51882199 -4.42466268 7.04006751 -4.125 5.5625 C-3.96257812 4.73878906 -3.80015625 3.91507813 -3.6328125 3.06640625 C-3.42398438 2.38449219 -3.21515625 1.70257812 -3 1 C-1 0 -1 0 0 0 Z " fill="#349AF5" transform="translate(238,572)"/>
<path d="M0 0 C0.66 0 1.32 0 2 0 C2 1.65 2 3.3 2 5 C0.02 5.99 -1.96 6.98 -4 8 C-3.67 7.01 -3.34 6.02 -3 5 C-2.34 5 -1.68 5 -1 5 C-0.67 3.35 -0.34 1.7 0 0 Z " fill="#080D13" transform="translate(153,569)"/>
<path d="M0 0 C2.14418558 3.21627837 2.67582137 5.19090105 3 9 C2.34 9.66 1.68 10.32 1 11 C-1.125 3.375 -1.125 3.375 0 0 Z " fill="#0E1011" transform="translate(610,446)"/>
<path d="M0 0 C0.99 0 1.98 0 3 0 C2.34 2.64 1.68 5.28 1 8 C0.34 7.34 -0.32 6.68 -1 6 C-0.625 2.875 -0.625 2.875 0 0 Z " fill="#101113" transform="translate(697,615)"/>
<path d="M0 0 C0.66 0.33 1.32 0.66 2 1 C1.67 2.32 1.34 3.64 1 5 C0.34 4.67 -0.32 4.34 -1 4 C-0.67 2.68 -0.34 1.36 0 0 Z M-2 4 C-2 4.99 -2 5.98 -2 7 C-2.99 7 -3.98 7 -5 7 C-4.01 6.01 -3.02 5.02 -2 4 Z " fill="#171718" transform="translate(679,578)"/>
<path d="M0 0 C0.99 0.66 1.98 1.32 3 2 C-1.75 5 -1.75 5 -4 5 C-4 4.01 -4 3.02 -4 2 C-2.68 1.34 -1.36 0.68 0 0 Z " fill="#43A7E9" transform="translate(237,528)"/>
</svg>
